# Blender v2.78 (sub 0) OBJ File: ''
# www.blender.org
mtllib ColoredCube.mtl
o Cube
v 1.000000 -1.000000 -1.000000
v 1.000000 -1.000000 1.000000
v -1.000000 -1.000000 1.000000
v -1.000000 -1.000000 -1.000000
v 1.000000 1.000000 -0.999999
v 0.999999 1.000000 1.000001
v -1.000000 1.000000 1.000000
v -1.000000 1.000000 -1.000000
vn 0.0000 -1.0000 0.0000
vn 1.0000 -0.0000 0.0000
vn 0.0000 -0.0000 1.0000
vn -1.0000 -0.0000 -0.0000
vn 0.0000 1.0000 0.0000
vn 0.0000 0.0000 -1.0000
usemtl Red
s off
f 1//1 3//1 4//1
f 5//2 2//2 1//2
f 6//3 3//3 2//3
f 3//4 8//4 4//4
f 1//1 2//1 3//1
f 6//3 7//3 3//3
f 3//4 7//4 8//4
usemtl Green
f 5//2 6//2 2//2
usemtl Purple
f 8//5 6//5 5//5
usemtl Blue
f 8//5 7//5 6//5
usemtl Yellow
f 1//6 8//6 5//6
usemtl Orange
f 1//6 4//6 8//6

## light 
v	2.0   5       1.00
v	2.0   5      -3.00
v        4     3      -3.00
v        4     3       1.00

g light
usemtl light
f -4 -3 -2 -1
